<?xml version="1.0" encoding="UTF-8"?>
<svg width="294px" height="25px" viewBox="0 0 294 25" version="1.1" xmlns="http://www.w3.org/2000/svg" xmlns:xlink="http://www.w3.org/1999/xlink">
    <title>Group 37</title>
    <defs>
        <polygon id="path-1" points="0.624615385 0.352115385 11.0765385 0.352115385 11.0765385 18.2288462 0.624615385 18.2288462"></polygon>
        <polygon id="path-3" points="0 23.2380769 293.926923 23.2380769 293.926923 0.00153846154 0 0.00153846154"></polygon>
    </defs>
    <g id="Symbols" stroke="none" stroke-width="1" fill="none" fill-rule="evenodd">
        <g id="Footer" transform="translate(-240.000000, -51.000000)">
            <g id="Group-37">
                <g transform="translate(240.000000, 51.000000)">
                    <path d="M11.1161538,9.91134615 C11.1161538,14.6325 9.61615385,16.5267308 6.98538462,16.5267308 C3.66423077,16.5267308 2.65846154,13.5748077 2.65846154,9.24788462 C2.65846154,4.89403846 3.86230769,2.6575 6.86230769,2.6575 C10.0584615,2.6575 11.1161538,5.31134615 11.1161538,9.91134615 M13.82,9.69019231 C13.82,4.96903846 11.8546154,0.813269231 6.86230769,0.813269231 C2.70461538,0.813269231 0.000769230769,3.93634615 0.000769230769,9.51711538 C0.000769230769,14.6075 2.31230769,18.3228846 6.98538462,18.3228846 C11.2873077,18.3228846 13.82,14.8786538 13.82,9.69019231" id="Fill-1" fill="#1A1A18"></path>
                    <g id="Group-5" transform="translate(15.384615, 5.009231)">
                        <mask id="mask-2" fill="white">
                            <use xlink:href="#path-1"></use>
                        </mask>
                        <g id="Clip-4"></g>
                        <path d="M8.64192308,6.9425 C8.64192308,9.94057692 7.73230769,11.4675 5.74,11.4675 C4.83038462,11.4675 3.87076923,10.9251923 3.10923077,10.1136538 L3.10923077,3.84442308 C3.94384615,2.85980769 4.95346154,2.31942308 6.05923077,2.31942308 C8.00153846,2.31942308 8.64192308,4.01557692 8.64192308,6.9425 M11.0765385,6.67134615 C11.0765385,2.4425 8.96115385,0.402115385 6.45346154,0.402115385 C5.14961538,0.402115385 3.91884615,0.9675 2.96115385,2.12326923 C2.96115385,1.09057692 2.91115385,0.721346154 2.81307692,0.352115385 L0.624615385,0.721346154 C0.797692308,1.50788462 0.895769231,2.29442308 0.895769231,3.74634615 L0.895769231,18.2309615 L3.10923077,17.7117308 L3.10923077,13.3848077 C3.10923077,12.9444231 3.10923077,12.4001923 3.05923077,12.0078846 C4.01884615,12.8694231 5.12461538,13.2867308 6.25730769,13.2867308 C9.40346154,13.2867308 11.0765385,10.5078846 11.0765385,6.67134615" id="Fill-3" fill="#1A1A18" mask="url(#mask-2)"></path>
                    </g>
                    <path d="M36.1001923,10.6973077 L30.9867308,10.6973077 C30.9867308,8.45884615 31.8463462,7.05692308 33.5675,7.05692308 C34.3540385,7.05692308 34.9444231,7.42615385 35.3386538,7.91846154 C35.8290385,8.53384615 36.1001923,9.51653846 36.1001923,10.6973077 L36.1001923,10.6973077 Z M38.4598077,12.3684615 L38.4598077,11.9761538 C38.4367308,9.14730769 38.0425,7.77038462 36.9617308,6.66461538 C36.1001923,5.77807692 34.9944231,5.33576923 33.6155769,5.33576923 C32.0925,5.33576923 30.8886538,5.87807692 29.9040385,7.03384615 C28.8463462,8.28769231 28.4271154,9.66269231 28.4271154,11.8030769 C28.4271154,15.8357692 30.5194231,18.3223077 33.9367308,18.3223077 C35.5348077,18.3223077 36.9848077,17.8030769 38.1905769,16.7453846 L37.3309615,15.3915385 C36.4444231,16.1819231 35.4598077,16.5742308 34.3040385,16.5742308 C33.1251923,16.5742308 32.1175,16.1069231 31.4790385,15.1223077 C31.1078846,14.5319231 30.9617308,13.7203846 30.9617308,12.6646154 L30.9617308,12.3684615 L38.4598077,12.3684615 Z" id="Fill-6" fill="#1A1A18"></path>
                    <path d="M46.6742308,5.72903846 L43.6742308,5.72903846 C43.6742308,4.4675 43.7953846,2.90788462 43.8953846,2.0175 L41.5588462,2.56173077 C41.4357692,3.50211538 41.4126923,4.76557692 41.4126923,5.72903846 L39.9357692,5.72903846 L39.9357692,7.32903846 L41.4126923,7.32903846 L41.4126923,15.2713462 C41.4126923,17.0675 41.805,17.3117308 42.3203846,17.7790385 C42.7146154,18.1482692 43.6011538,18.3925 44.4126923,18.3925 C45.2223077,18.3925 45.9607692,18.2213462 46.6492308,17.8771154 L46.3780769,16.5001923 C45.9857692,16.6732692 45.6415385,16.7444231 45.2223077,16.7444231 C43.9934615,16.7444231 43.6242308,16.2790385 43.6242308,14.7540385 L43.6242308,7.32903846 L46.0588462,7.32903846 L46.6742308,5.72903846 Z" id="Fill-8" fill="#1A1A18"></path>
                    <path d="M58.6748077,17.2375 C58.1825,16.8201923 57.9113462,15.9336538 57.9113462,14.6817308 L57.9113462,5.41057692 L55.6748077,5.85288462 L55.6748077,14.7067308 C55.1575,15.7875 53.9786538,16.6490385 52.8709615,16.6490385 C52.3286538,16.6490385 51.7651923,16.4009615 51.4440385,16.1067308 C51.0017308,15.6894231 50.8786538,15.1971154 50.8786538,13.9432692 L50.8786538,5.36057692 L48.6421154,5.80480769 L48.6421154,14.5586538 C48.6421154,15.4451923 48.7151923,16.1336538 48.9363462,16.6259615 C49.4517308,17.7567308 50.6825,18.4701923 52.2555769,18.4701923 C53.7805769,18.4701923 54.9844231,17.9028846 55.9690385,16.7009615 C56.1901923,17.5336538 56.5113462,18.0009615 57.1248077,18.4701923 L58.6748077,17.2375 Z" id="Fill-10" fill="#1A1A18"></path>
                    <path d="M69.6423077,14.2646154 C69.6423077,12.6396154 68.7076923,11.3376923 66.4442308,10.8203846 L64.8461538,10.4530769 C63.5442308,10.1569231 63.1,9.66461538 63.1,8.78 C63.1,7.67230769 63.9365385,6.93576923 65.2403846,6.93576923 C66.2230769,6.93576923 67.1326923,7.255 68.2634615,7.82038462 L69.0269231,6.22230769 C68.0192308,5.63192308 66.6403846,5.21461538 65.1423077,5.21461538 C62.4846154,5.21461538 60.6903846,6.78769231 60.6903846,9.05115385 C60.6903846,10.8703846 61.7480769,12.0742308 63.6903846,12.4684615 L65.1903846,12.7646154 C66.6173077,13.0338462 67.2557692,13.6492308 67.2557692,14.705 C67.2557692,15.9107692 66.3211538,16.7011538 64.9692308,16.7011538 C63.5923077,16.7011538 62.1903846,16.1338462 61.0096154,15.4684615 L60.1980769,17.0915385 C61.625,17.9280769 63.2980769,18.3934615 64.7961538,18.3934615 C67.675,18.3934615 69.6423077,16.7223077 69.6423077,14.2646154" id="Fill-12" fill="#1A1A18"></path>
                    <mask id="mask-4" fill="white">
                        <use xlink:href="#path-3"></use>
                    </mask>
                    <g id="Clip-15"></g>
                    <polygon id="Fill-14" fill="#1A1A18" mask="url(#mask-4)" points="71.7307692 12.5169231 76.7230769 12.5169231 76.7230769 10.2803846 71.7307692 10.2803846"></polygon>
                    <path d="M87.5669231,1.74673077 C87.5669231,0.885192308 86.8284615,0.146730769 85.9438462,0.146730769 C85.0592308,0.146730769 84.3457692,0.885192308 84.3457692,1.79480769 C84.3457692,2.70634615 85.0342308,3.41788462 85.9438462,3.41788462 C86.8284615,3.41788462 87.5669231,2.67942308 87.5669231,1.74673077 M87.1726923,17.7794231 L87.1726923,5.43519231 L84.8380769,5.9275 L84.8380769,17.7544231 C84.8380769,19.3525 84.5438462,20.5351923 83.8784615,21.1486538 C83.6323077,21.3678846 83.3380769,21.5890385 83.0919231,21.7390385 L84.0996154,23.1140385 C85.0342308,22.6986538 85.7476923,22.0813462 86.2630769,21.4178846 C86.7053846,20.8294231 87.1726923,19.8198077 87.1726923,17.7794231" id="Fill-16" fill="#1A1A18" mask="url(#mask-4)"></path>
                    <path d="M96.5917308,12.0015385 L96.5167308,15.1496154 C95.9532692,16.1323077 94.9686538,16.7707692 93.9359615,16.7707692 C92.6821154,16.7707692 91.9936538,15.9842308 91.9936538,14.6323077 C91.9936538,13.8207692 92.1648077,13.3784615 92.6321154,12.8380769 C93.1244231,12.2726923 94.1571154,11.9515385 95.8551923,11.9515385 C96.0513462,11.9515385 96.2475,11.9765385 96.5917308,12.0015385 L96.5917308,12.0015385 Z M99.7878846,17.0419231 C98.8282692,16.4515385 98.7801923,15.7630769 98.7801923,14.0669231 C98.7801923,12.2726923 98.8782692,10.3784615 98.8782692,9.49192308 C98.8782692,8.28807692 98.8282692,7.87076923 98.6321154,7.32846154 C98.1648077,6.02653846 96.8628846,5.36115385 95.0667308,5.36115385 C92.6821154,5.36115385 91.1071154,6.29576923 89.9032692,6.98423077 L90.9359615,8.60730769 C91.9436538,7.84576923 93.4186538,7.20538462 94.7225,7.20538462 C96.4455769,7.20538462 96.6417308,8.19 96.6417308,9.64 L96.6417308,10.4515385 C96.3205769,10.4284615 96.0744231,10.4284615 95.7801923,10.4284615 C91.7975,10.4284615 89.5090385,11.9515385 89.5090385,14.8034615 C89.5090385,17.1669231 91.0340385,18.4207692 93.4936538,18.4207692 C95.6321154,18.4207692 96.6648077,17.1880769 96.9840385,16.7976923 C97.2801923,17.6573077 97.8705769,18.2726923 98.6321154,18.5669231 L99.7878846,17.0419231 Z" id="Fill-17" fill="#1A1A18" mask="url(#mask-4)"></path>
                    <path d="M118.206538,18.0505769 L112.721923,10.9582692 L117.123846,5.72942308 L114.37,5.72942308 L110.312308,11.0563462 L115.377692,18.0505769 L118.206538,18.0505769 Z M110.068077,18.0505769 L110.068077,2.71788462 C110.068077,1.70442308 109.92,0.667884615 109.771923,0.000576923077 L107.485385,0.544807692 C107.681538,1.26019231 107.804615,2.10057692 107.804615,3.36019231 L107.804615,18.0505769 L110.068077,18.0505769 Z" id="Fill-18" fill="#1A1A18" mask="url(#mask-4)"></path>
                    <path d="M129.591923,17.2375 C129.101538,16.8201923 128.828462,15.9336538 128.828462,14.6817308 L128.828462,5.41057692 L126.59,5.85288462 L126.59,14.7067308 C126.074615,15.7875 124.895769,16.6490385 123.788077,16.6490385 C123.247692,16.6490385 122.682308,16.4009615 122.363077,16.1067308 C121.918846,15.6894231 121.795769,15.1971154 121.795769,13.9432692 L121.795769,5.36057692 L119.559231,5.80480769 L119.559231,14.5586538 C119.559231,15.4451923 119.632308,16.1336538 119.853462,16.6259615 C120.370769,17.7567308 121.599615,18.4701923 123.172692,18.4701923 C124.697692,18.4701923 125.903462,17.9028846 126.886154,16.7009615 C127.107308,17.5336538 127.428462,18.0009615 128.041923,18.4701923 L129.591923,17.2375 Z" id="Fill-19" fill="#1A1A18" mask="url(#mask-4)"></path>
                    <path d="M136.427885,18.0261538 L136.033654,16.6242308 C135.7625,16.7011538 135.420192,16.6242308 135.272115,16.4530769 C135.025962,16.23 134.950962,15.9338462 134.950962,14.6319231 L134.950962,3.54153846 C134.950962,2.01846154 134.950962,0.837692308 134.731731,0.0261538462 L132.370192,0.518461538 C132.566346,1.47615385 132.641346,2.31269231 132.641346,4.05692308 L132.641346,15.2223077 C132.641346,16.4280769 132.7375,16.8453846 133.106731,17.3607692 C133.575962,18.0261538 134.141346,18.2973077 135.025962,18.2973077 C135.566346,18.2973077 135.960577,18.2223077 136.427885,18.0261538" id="Fill-20" fill="#1A1A18" mask="url(#mask-4)"></path>
                    <path d="M144.148462,5.72903846 L141.148462,5.72903846 C141.148462,4.4675 141.271538,2.90788462 141.369615,2.0175 L139.035,2.56173077 C138.911923,3.50211538 138.886923,4.76557692 138.886923,5.72903846 L137.411923,5.72903846 L137.411923,7.32903846 L138.886923,7.32903846 L138.886923,15.2713462 C138.886923,17.0675 139.279231,17.3117308 139.796538,17.7790385 C140.188846,18.1482692 141.075385,18.3925 141.886923,18.3925 C142.698462,18.3925 143.435,18.2213462 144.123462,17.8771154 L143.854231,16.5001923 C143.46,16.6732692 143.115769,16.7444231 142.698462,16.7444231 C141.469615,16.7444231 141.100385,16.2790385 141.100385,14.7540385 L141.100385,7.32903846 L143.535,7.32903846 L144.148462,5.72903846 Z" id="Fill-21" fill="#1A1A18" mask="url(#mask-4)"></path>
                    <path d="M151.747692,5.72903846 L148.745769,5.72903846 C148.745769,4.4675 148.870769,2.90788462 148.968846,2.0175 L146.632308,2.56173077 C146.509231,3.50211538 146.484231,4.76557692 146.484231,5.72903846 L145.009231,5.72903846 L145.009231,7.32903846 L146.484231,7.32903846 L146.484231,15.2713462 C146.484231,17.0675 146.878462,17.3117308 147.393846,17.7790385 C147.788077,18.1482692 148.672692,18.3925 149.484231,18.3925 C150.295769,18.3925 151.034231,18.2213462 151.722692,17.8771154 L151.453462,16.5001923 C151.059231,16.6732692 150.713077,16.7444231 150.295769,16.7444231 C149.066923,16.7444231 148.695769,16.2790385 148.695769,14.7540385 L148.695769,7.32903846 L151.130385,7.32903846 L151.747692,5.72903846 Z" id="Fill-22" fill="#1A1A18" mask="url(#mask-4)"></path>
                    <path d="M163.746346,17.2375 C163.254038,16.8201923 162.982885,15.9336538 162.982885,14.6817308 L162.982885,5.41057692 L160.744423,5.85288462 L160.744423,14.7067308 C160.230962,15.7875 159.050192,16.6490385 157.9425,16.6490385 C157.400192,16.6490385 156.834808,16.4009615 156.515577,16.1067308 C156.075192,15.6894231 155.952115,15.1971154 155.952115,13.9432692 L155.952115,5.36057692 L153.713654,5.80480769 L153.713654,14.5586538 C153.713654,15.4451923 153.786731,16.1336538 154.009808,16.6259615 C154.525192,17.7567308 155.755962,18.4701923 157.327115,18.4701923 C158.854038,18.4701923 160.057885,17.9028846 161.0425,16.7009615 C161.263654,17.5336538 161.580962,18.0009615 162.198269,18.4701923 L163.746346,17.2375 Z" id="Fill-23" fill="#1A1A18" mask="url(#mask-4)"></path>
                    <path d="M176.828462,17.2375 C176.336154,16.8201923 176.066923,15.9336538 176.066923,14.6817308 L176.066923,5.41057692 L173.830385,5.85288462 L173.830385,14.7067308 C173.313077,15.7875 172.132308,16.6490385 171.024615,16.6490385 C170.484231,16.6490385 169.918846,16.4009615 169.597692,16.1067308 C169.155385,15.6894231 169.032308,15.1971154 169.032308,13.9432692 L169.032308,5.36057692 L166.795769,5.80480769 L166.795769,14.5586538 C166.795769,15.4451923 166.870769,16.1336538 167.088077,16.6259615 C167.609231,17.7567308 168.84,18.4701923 170.409231,18.4701923 C171.934231,18.4701923 173.14,17.9028846 174.122692,16.7009615 C174.343846,17.5336538 174.665,18.0009615 175.276538,18.4701923 L176.828462,17.2375 Z" id="Fill-24" fill="#1A1A18" mask="url(#mask-4)"></path>
                    <path d="M186.244808,5.46057692 C186.048654,5.38557692 185.779423,5.3375 185.483269,5.3375 C184.181346,5.3375 183.123654,6.05096154 182.137115,7.47596154 L182.137115,7.25673077 C182.137115,6.63942308 181.944808,5.82788462 181.721731,5.36057692 L179.533269,5.92788462 C179.829423,6.68942308 180.000577,7.50288462 180.000577,9.00096154 L180.000577,18.0509615 L182.264038,18.0509615 L182.264038,10.1086538 C182.264038,8.75480769 183.444808,7.59903846 184.821731,7.59903846 C185.067885,7.59903846 185.239038,7.64903846 185.460192,7.72211538 L186.244808,5.46057692 Z" id="Fill-25" fill="#1A1A18" mask="url(#mask-4)"></path>
                    <path d="M190.894808,1.94307692 C190.894808,1.00846154 190.156346,0.296923077 189.271731,0.296923077 C188.385192,0.296923077 187.675577,1.03346154 187.675577,1.94307692 C187.675577,2.82769231 188.362115,3.56615385 189.246731,3.56615385 C190.156346,3.56615385 190.894808,2.82769231 190.894808,1.94307692 L190.894808,1.94307692 Z M190.425577,18.0507692 L190.425577,5.43538462 L188.092885,5.80461538 L188.092885,18.0507692 L190.425577,18.0507692 Z" id="Fill-26" fill="#1A1A18" mask="url(#mask-4)"></path>
                    <path d="M209.7575,18.0505769 L209.7575,8.85442308 C209.7575,6.59096154 208.526731,5.38711538 206.6075,5.38711538 C205.355577,5.38711538 204.074808,6.02557692 202.845962,7.32942308 C202.230577,6.00057692 201.076731,5.38711538 199.917115,5.38711538 C198.761346,5.38711538 197.509423,6.02557692 196.451731,7.13134615 C196.451731,6.44288462 196.280577,5.82942308 196.034423,5.41019231 L193.920962,5.9275 C194.265192,6.78903846 194.361346,7.25634615 194.361346,9.00057692 L194.361346,18.0505769 L196.599808,18.0505769 L196.599808,8.80442308 C197.655577,7.79480769 198.592115,7.3775 199.426731,7.3775 C200.559423,7.3775 200.953654,7.89480769 200.953654,9.27173077 L200.953654,18.0505769 L203.167115,18.0505769 L203.167115,9.00057692 C204.097885,8.06596154 204.911346,7.32942308 206.042115,7.32942308 C207.074808,7.32942308 207.517115,7.82173077 207.517115,9.22365385 L207.517115,18.0505769 L209.7575,18.0505769 Z" id="Fill-27" fill="#1A1A18" mask="url(#mask-4)"></path>
                    <path d="M216.491923,1.94307692 C216.491923,1.00846154 215.755385,0.296923077 214.868846,0.296923077 C213.984231,0.296923077 213.268846,1.03346154 213.268846,1.94307692 C213.268846,2.82769231 213.961154,3.56615385 214.847692,3.56615385 C215.755385,3.56615385 216.491923,2.82769231 216.491923,1.94307692 L216.491923,1.94307692 Z M216.028462,18.0507692 L216.028462,5.43538462 L213.69,5.80461538 L213.69,18.0507692 L216.028462,18.0507692 Z" id="Fill-28" fill="#1A1A18" mask="url(#mask-4)"></path>
                    <path d="M229.13,18.0505769 L229.13,8.73134615 C229.13,8.16403846 229.033846,7.62365385 228.837692,7.18134615 C228.395385,6.12365385 227.239615,5.43519231 225.935769,5.43519231 C225.172308,5.43519231 224.360769,5.63134615 223.649231,6.05057692 C223.131923,6.34480769 222.762692,6.66596154 222.049231,7.25634615 C222.049231,6.49288462 221.928077,5.95057692 221.63,5.36019231 L219.493462,5.95057692 C219.835769,6.83711538 219.958846,7.4025 219.958846,8.8775 L219.958846,18.0505769 L222.197308,18.0505769 L222.197308,8.9275 C223.035769,8.04096154 224.360769,7.3525 225.247308,7.3525 C225.812692,7.3525 226.253077,7.52557692 226.501154,7.84480769 C226.797308,8.23903846 226.895385,8.63326923 226.895385,9.73903846 L226.895385,18.0505769 L229.13,18.0505769 Z" id="Fill-29" fill="#1A1A18" mask="url(#mask-4)"></path>
                    <path d="M235.868269,1.94307692 C235.868269,1.00846154 235.133654,0.296923077 234.247115,0.296923077 C233.360577,0.296923077 232.649038,1.03346154 232.649038,1.94307692 C232.649038,2.82769231 233.335577,3.56615385 234.222115,3.56615385 C235.133654,3.56615385 235.868269,2.82769231 235.868269,1.94307692 L235.868269,1.94307692 Z M235.402885,18.0507692 L235.402885,5.43538462 L233.066346,5.80461538 L233.066346,18.0507692 L235.402885,18.0507692 Z" id="Fill-30" fill="#1A1A18" mask="url(#mask-4)"></path>
                    <path d="M247.553269,14.2646154 C247.553269,12.6396154 246.614808,11.3376923 244.353269,10.8203846 L242.753269,10.4530769 C241.451346,10.1569231 241.009038,9.66461538 241.009038,8.78 C241.009038,7.67230769 241.845577,6.93576923 243.149423,6.93576923 C244.132115,6.93576923 245.041731,7.255 246.174423,7.82038462 L246.935962,6.22230769 C245.928269,5.63192308 244.549423,5.21461538 243.051346,5.21461538 C240.395577,5.21461538 238.599423,6.78769231 238.599423,9.05115385 C238.599423,10.8703846 239.659038,12.0742308 241.601346,12.4684615 L243.099423,12.7646154 C244.524423,13.0338462 245.166731,13.6492308 245.166731,14.705 C245.166731,15.9107692 244.230192,16.7011538 242.878269,16.7011538 C241.501346,16.7011538 240.101346,16.1338462 238.918654,15.4684615 L238.107115,17.0915385 C239.534038,17.9280769 241.207115,18.3934615 242.705192,18.3934615 C245.584038,18.3934615 247.553269,16.7223077 247.553269,14.2646154" id="Fill-31" fill="#1A1A18" mask="url(#mask-4)"></path>
                    <path d="M255.641731,5.72903846 L252.641731,5.72903846 C252.641731,4.4675 252.764808,2.90788462 252.860962,2.0175 L250.528269,2.56173077 C250.401346,3.50211538 250.378269,4.76557692 250.378269,5.72903846 L248.905192,5.72903846 L248.905192,7.32903846 L250.378269,7.32903846 L250.378269,15.2713462 C250.378269,17.0675 250.7725,17.3117308 251.287885,17.7790385 C251.680192,18.1482692 252.568654,18.3925 253.380192,18.3925 C254.189808,18.3925 254.928269,18.2213462 255.618654,17.8771154 L255.345577,16.5001923 C254.953269,16.6732692 254.607115,16.7444231 254.189808,16.7444231 C252.960962,16.7444231 252.591731,16.2790385 252.591731,14.7540385 L252.591731,7.32903846 L255.024423,7.32903846 L255.641731,5.72903846 Z" id="Fill-32" fill="#1A1A18" mask="url(#mask-4)"></path>
                    <path d="M264.785769,10.6973077 L259.672308,10.6973077 C259.672308,8.45884615 260.535769,7.05692308 262.255,7.05692308 C263.041538,7.05692308 263.633846,7.42615385 264.026154,7.91846154 C264.518462,8.53384615 264.785769,9.51653846 264.785769,10.6973077 L264.785769,10.6973077 Z M267.149231,12.3684615 L267.149231,11.9761538 C267.124231,9.14730769 266.731923,7.77038462 265.649231,6.66461538 C264.785769,5.77807692 263.681923,5.33576923 262.305,5.33576923 C260.778077,5.33576923 259.576154,5.87807692 258.593462,7.03384615 C257.535769,8.28769231 257.116538,9.66269231 257.116538,11.8030769 C257.116538,15.8357692 259.208846,18.3223077 262.624231,18.3223077 C264.224231,18.3223077 265.672308,17.8030769 266.878077,16.7453846 L266.018462,15.3915385 C265.131923,16.1819231 264.147308,16.5742308 262.995385,16.5742308 C261.814615,16.5742308 260.805,16.1069231 260.164615,15.1223077 C259.795385,14.5319231 259.649231,13.7203846 259.649231,12.6646154 L259.649231,12.3684615 L267.149231,12.3684615 Z" id="Fill-33" fill="#1A1A18" mask="url(#mask-4)"></path>
                    <path d="M276.347692,5.46057692 C276.149615,5.38557692 275.880385,5.3375 275.584231,5.3375 C274.282308,5.3375 273.222692,6.05096154 272.238077,7.47596154 L272.238077,7.25673077 C272.238077,6.63942308 272.041923,5.82788462 271.822692,5.36057692 L269.632308,5.92788462 C269.928462,6.68942308 270.101538,7.50288462 270.101538,9.00096154 L270.101538,18.0509615 L272.363077,18.0509615 L272.363077,10.1086538 C272.363077,8.75480769 273.541923,7.59903846 274.918846,7.59903846 C275.166923,7.59903846 275.338077,7.64903846 275.559231,7.72211538 L276.347692,5.46057692 Z" id="Fill-34" fill="#1A1A18" mask="url(#mask-4)"></path>
                    <path d="M280.993846,1.94307692 C280.993846,1.00846154 280.253462,0.296923077 279.370769,0.296923077 C278.486154,0.296923077 277.770769,1.03346154 277.770769,1.94307692 C277.770769,2.82769231 278.463077,3.56615385 279.345769,3.56615385 C280.253462,3.56615385 280.993846,2.82769231 280.993846,1.94307692 L280.993846,1.94307692 Z M280.528462,18.0507692 L280.528462,5.43538462 L278.19,5.80461538 L278.19,18.0507692 L280.528462,18.0507692 Z" id="Fill-35" fill="#1A1A18" mask="url(#mask-4)"></path>
                    <path d="M292.503269,2.63230769 C292.503269,1.79576923 291.841731,1.10730769 291.053269,1.10730769 C290.264808,1.10730769 289.624423,1.79576923 289.624423,2.63230769 C289.624423,3.46884615 290.264808,4.18230769 291.053269,4.18230769 C291.862885,4.18230769 292.503269,3.46884615 292.503269,2.63230769 M287.385962,2.63230769 C287.385962,1.79576923 286.7225,1.10730769 285.937885,1.10730769 C285.149423,1.10730769 284.509038,1.79576923 284.509038,2.63230769 C284.509038,3.46884615 285.149423,4.18230769 285.937885,4.18230769 C286.7475,4.18230769 287.385962,3.46884615 287.385962,2.63230769 M291.393654,12.0976923 C291.393654,15.3226923 290.335962,16.6496154 288.614808,16.6496154 C286.699423,16.6496154 285.737885,15.3938462 285.737885,11.6323077 C285.737885,8.53423077 286.551346,7.13230769 288.516731,7.13230769 C290.289808,7.13230769 291.393654,8.28807692 291.393654,12.0976923 M293.928269,12.0015385 C293.928269,8.28807692 292.157115,5.38615385 288.516731,5.38615385 C285.2725,5.38615385 283.230192,7.89384615 283.230192,11.8784615 C283.230192,15.89 285.2725,18.3938462 288.566731,18.3938462 C291.841731,18.3938462 293.928269,15.9111538 293.928269,12.0015385" id="Fill-36" fill="#1A1A18" mask="url(#mask-4)"></path>
                </g>
            </g>
        </g>
    </g>
</svg>